PathFileType	4	(X/Y/Z)	/Users/itak/Documents/Research/Walk-IL/dataset/trc/00210_00009.trc
DataRate	CameraRate	NumFrames	NumMarkers	Units	OrigDataRate	OrigDataStartFrame	OrigNumFrames
100.000000	100.000000	4	53	mm	100.000000	79	637
Frame#	Time	RPSI			LPSI			L3			STRN			T10			C7			CLAV			RBAK			LBAK			LSHO			LUPA			LAEL			LAOL			LWTS			LWPS			LFRA			LIFD			LHPS			LHTS			RSHO			RUPA			RAEL			RAOL			RWTS			RWPS			RFRA			RIFD			RHTS			RHPS			RBHD			LFHD			RFHD			LBHD			LHIP			RHIP			RASI			LASI			LKNE			LTHI			LANK			LTIP			LTOE			LMT5			LHEE			RKNE			RTHI			RANK			RTIP			RTOE			RMT1			RMT5			RHEE			LMT1			
		X1	Y1	Z1	X2	Y2	Z2	X3	Y3	Z3	X4	Y4	Z4	X5	Y5	Z5	X6	Y6	Z6	X7	Y7	Z7	X8	Y8	Z8	X9	Y9	Z9	X10	Y10	Z10	X11	Y11	Z11	X12	Y12	Z12	X13	Y13	Z13	X14	Y14	Z14	X15	Y15	Z15	X16	Y16	Z16	X17	Y17	Z17	X18	Y18	Z18	X19	Y19	Z19	X20	Y20	Z20	X21	Y21	Z21	X22	Y22	Z22	X23	Y23	Z23	X24	Y24	Z24	X25	Y25	Z25	X26	Y26	Z26	X27	Y27	Z27	X28	Y28	Z28	X29	Y29	Z29	X30	Y30	Z30	X31	Y31	Z31	X32	Y32	Z32	X33	Y33	Z33	X34	Y34	Z34	X35	Y35	Z35	X36	Y36	Z36	X37	Y37	Z37	X38	Y38	Z38	X39	Y39	Z39	X40	Y40	Z40	X41	Y41	Z41	X42	Y42	Z42	X43	Y43	Z43	X44	Y44	Z44	X45	Y45	Z45	X46	Y46	Z46	X47	Y47	Z47	X48	Y48	Z48	X49	Y49	Z49	X50	Y50	Z50	X51	Y51	Z51	X52	Y52	Z52	X53	Y53	Z53	

80	0.79	-1369.8798828125	1056.436401367188	-226.32666015625	-1360.482421875	1060.717041015625	-346.1745910644531	-1363.946533203125	1134.566284179688	-303.5594787597656	-1125.14208984375	1321.291015625	-295.1170043945312	-1378.191528320312	1261.821166992188	-298.4386291503906	-1316.07568359375	1523.4501953125	-299.0260009765625	-1149.865356445312	1439.108520507812	-295.0838623046875	-1393.837646484375	1385.421752929688	-226.1847534179688	-1333.49072265625	1486.976684570312	-411.0304260253906	-1242.085327148438	1489.765869140625	-464.9696350097656	-1266.274169921875	1370.665405273438	-543.5142211914062	-1247.656494140625	1160.982421875	-572.5217895507812	-1321.576538085938	1141.927490234375	-527.5792846679688	-1148.925048828125	933.3535766601562	-514.4256591796875	-1170.685668945312	915.711181640625	-592.83154296875	-1221.362060546875	1055.208984375	-585.560791015625	-1114.149780273438	737.2621459960938	-533.6926879882812	-1145.699829101562	829.2890625	-589.821044921875	-1098.402954101562	839.838623046875	-536.7062377929688	-1259.629272460938	1483.21484375	-128.1006164550781	-1279.360595703125	1419.204345703125	-60.88092803955078	-1293.335205078125	1137.202880859375	-19.74348068237305	-1328.677734375	1131.387329101562	-107.7180633544922	-1159.095581054688	921.5745849609375	-71.50968933105469	-1206.801391601562	907.7748413085938	-2.60212779045105	-1265.2392578125	1068.720581054688	-8.221188545227051	-1141.618286132812	725.7394409179688	-73.62827301025391	-1118.7421875	799.73681640625	-59.26150894165039	-1165.992065429688	800.4660034179688	-4.020036220550537	-1287.723876953125	1675.21923828125	-267.7388916015625	-1072.285766601562	1729.572631835938	-319.7716674804688	-1094.741577148438	1731.158447265625	-222.1101684570312	-1215.719360351562	1681.352905273438	-387.7055358886719	-1251.83154296875	994.9846801757812	-479.8331298828125	-1278.170654296875	1013.828918457031	-114.1799468994141	-1178.05419921875	1055.065063476562	-145.6238708496094	-1151.967163085938	1035.98876953125	-427.635009765625	-1223.392822265625	508.4213562011719	-427.885498046875	-1220.957763671875	652.3543090820312	-462.7638244628906	-1303.354370117188	39.57678985595703	-413.4912109375	-1272.328125	286.4115905761719	-433.775634765625	-1092.569213867188	45.14254379272461	-346.6390075683594	-1174.68603515625	39.11166000366211	-424.1741943359375	-1368.174926757812	49.26439666748047	-364.0147399902344	-1238.09521484375	520.431640625	-153.0090484619141	-1221.796875	788.3016357421875	-104.0297927856445	-1326.312866210938	41.66067886352539	-189.5690765380859	-1234.13525390625	402.2714233398438	-172.5422973632812	-1110.175048828125	47.55160903930664	-199.9202423095703	-1161.080078125	43.38971328735352	-249.9728546142578	-1221.550903320312	42.08834075927734	-147.2640075683594	-1379.183227539062	39.17716598510742	-257.9505615234375	-1162.526489257812	40.53644180297852	-307.3757934570312	
81	0.8	-1369.791015625	1056.241455078125	-225.871337890625	-1360.473266601562	1060.5859375	-345.7324829101562	-1363.921020507812	1134.560668945312	-303.1065673828125	-1125.001586914062	1321.15380859375	-294.7099914550781	-1378.160766601562	1261.834106445312	-297.9761352539062	-1315.803100585938	1523.436279296875	-298.5090942382812	-1149.639404296875	1438.992065429688	-294.6399230957031	-1393.617431640625	1385.4326171875	-225.6545715332031	-1333.272705078125	1487.001342773438	-410.5196228027344	-1241.858642578125	1489.74365234375	-464.4771728515625	-1266.156372070312	1370.693359375	-543.0829467773438	-1247.699096679688	1161.040893554688	-572.1917114257812	-1321.602783203125	1142.0576171875	-527.2908325195312	-1149.446899414062	933.2552490234375	-514.0917358398438	-1170.981201171875	915.6490478515625	-592.5182495117188	-1221.53271484375	1055.22412109375	-585.2452392578125	-1115.490600585938	737.115478515625	-533.4271240234375	-1146.170166015625	829.2210083007812	-589.5376586914062	-1098.896484375	839.593505859375	-536.4696655273438	-1259.249633789062	1483.121215820312	-127.6576156616211	-1279.053588867188	1419.100341796875	-60.39776992797852	-1293.11083984375	1137.095336914062	-19.31600761413574	-1328.541381835938	1131.341430664062	-107.2785720825195	-1159.09765625	921.4506225585938	-71.30224609375	-1206.761840820312	907.5917358398438	-2.406734466552734	-1265.102416992188	1068.585083007812	-7.874821662902832	-1141.886108398438	725.5299682617188	-73.53785705566406	-1118.767578125	799.5540161132812	-59.19546508789062	-1165.976440429688	800.24072265625	-3.87096381187439	-1286.947265625	1675.447021484375	-266.9019775390625	-1071.5498046875	1728.91748046875	-319.5680236816406	-1093.580688476562	1730.578247070312	-221.8638305664062	-1215.305297851562	1681.345092773438	-387.0838623046875	-1251.708618164062	995.0062866210938	-479.4540405273438	-1277.975463867188	1013.669189453125	-113.826416015625	-1177.91455078125	1054.911499023438	-145.3574523925781	-1151.85400390625	1036.112426757812	-427.5660400390625	-1223.187377929688	508.4389953613281	-427.6885681152344	-1220.753784179688	652.3983764648438	-462.5285949707031	-1303.348022460938	39.57666778564453	-413.4862670898438	-1272.283203125	286.4425659179688	-433.7010192871094	-1092.562744140625	45.13783264160156	-346.6394348144531	-1174.678833007812	39.10702133178711	-424.1774597167969	-1368.14111328125	49.25056457519531	-364.0356140136719	-1237.129150390625	520.39404296875	-152.8382263183594	-1221.245971679688	788.1724853515625	-103.7937393188477	-1326.30615234375	41.69780731201172	-189.5806121826172	-1233.244995117188	402.0323486328125	-172.3959045410156	-1110.151489257812	47.54405975341797	-199.9681701660156	-1161.086303710938	43.36721038818359	-249.9813537597656	-1221.5380859375	42.13020706176758	-147.3095703125	-1379.172729492188	39.17703247070312	-257.9695739746094	-1162.524780273438	40.53315353393555	-307.3796081542969	
82	0.8100000000000001	-1369.647094726562	1056.053344726562	-225.3822174072266	-1360.468139648438	1060.462524414062	-345.2754821777344	-1363.86767578125	1134.550170898438	-302.63232421875	-1124.8408203125	1321.027099609375	-294.2851867675781	-1378.123779296875	1261.837646484375	-297.4939880371094	-1315.523803710938	1523.41845703125	-297.967529296875	-1149.398071289062	1438.8798828125	-294.1734313964844	-1393.385498046875	1385.436645507812	-225.0965728759766	-1333.052001953125	1487.024291992188	-409.978759765625	-1241.658447265625	1489.719604492188	-463.9696044921875	-1266.055419921875	1370.7255859375	-542.6316528320312	-1247.747680664062	1161.105224609375	-571.8475952148438	-1321.62060546875	1142.209106445312	-526.9950561523438	-1149.945068359375	933.1376953125	-513.7179565429688	-1171.259765625	915.5849609375	-592.1800537109375	-1221.69287109375	1055.24658203125	-584.9191284179688	-1116.88916015625	736.9441528320312	-533.002685546875	-1146.645751953125	829.1531982421875	-589.2337036132812	-1099.381713867188	839.345458984375	-536.2098999023438	-1258.86328125	1483.029418945312	-127.1769790649414	-1278.72705078125	1418.9951171875	-59.88896942138672	-1292.876831054688	1136.985961914062	-18.86678886413574	-1328.398071289062	1131.28759765625	-106.8250198364258	-1159.047485351562	921.3250122070312	-71.06096649169922	-1206.691772460938	907.3980712890625	-2.176247835159302	-1264.974365234375	1068.443969726562	-7.520514965057373	-1142.154907226562	725.3114013671875	-73.44377136230469	-1118.73779296875	799.3951416015625	-59.09662628173828	-1165.938110351562	800.015380859375	-3.706302642822266	-1286.13037109375	1675.697631835938	-266.02392578125	-1070.767578125	1728.233520507812	-319.3560485839844	-1092.364379882812	1729.970947265625	-221.6128845214844	-1214.840454101562	1681.3466796875	-386.4401550292969	-1251.616821289062	995.03271484375	-479.0720825195312	-1277.746704101562	1013.516906738281	-113.4537658691406	-1177.788940429688	1054.745361328125	-145.0859832763672	-1151.735717773438	1036.21923828125	-427.4344177246094	-1222.970458984375	508.4562072753906	-427.4857177734375	-1220.5712890625	652.44384765625	-462.2956237792969	-1303.341552734375	39.57707977294922	-413.4814453125	-1272.2431640625	286.4765625	-433.6246643066406	-1092.554077148438	45.13251876831055	-346.6393432617188	-1174.67724609375	39.10551834106445	-424.1848754882812	-1368.122436523438	49.2454948425293	-364.0487670898438	-1236.243286132812	520.36328125	-152.638671875	-1220.73828125	788.0728759765625	-103.5122451782227	-1326.301879882812	41.72975540161133	-189.5891418457031	-1232.410522460938	401.7987365722656	-172.2550354003906	-1110.133178710938	47.53856658935547	-200.0102996826172	-1161.095581054688	43.34770202636719	-249.9901580810547	-1221.525512695312	42.16754150390625	-147.3524780273438	-1379.170532226562	39.1705322265625	-257.9837036132812	-1162.525024414062	40.53244018554688	-307.3846130371094	
83	0.8200000000000001	-1369.45068359375	1055.876098632812	-224.8636627197266	-1360.457885742188	1060.350952148438	-344.8034057617188	-1363.781372070312	1134.534912109375	-302.1353454589844	-1124.658447265625	1320.913696289062	-293.847900390625	-1378.064331054688	1261.83349609375	-296.9859924316406	-1315.236572265625	1523.397827148438	-297.3990783691406	-1149.142944335938	1438.774291992188	-293.68798828125	-1393.1416015625	1385.433471679688	-224.5122375488281	-1332.828125	1487.04736328125	-409.4056091308594	-1241.483276367188	1489.698120117188	-463.4437866210938	-1265.975952148438	1370.767456054688	-542.1608276367188	-1247.79345703125	1161.180419921875	-571.4933471679688	-1321.638549804688	1142.387329101562	-526.707763671875	-1150.411743164062	933.0072631835938	-513.2938842773438	-1171.51513671875	915.5259399414062	-591.8116455078125	-1221.826293945312	1055.281982421875	-584.5828247070312	-1118.385498046875	736.7578125	-532.3816528320312	-1147.11376953125	829.0883178710938	-588.90087890625	-1099.846435546875	839.0986328125	-535.920166015625	-1258.485595703125	1482.947021484375	-126.6474380493164	-1278.37841796875	1418.888793945312	-59.35361099243164	-1292.63720703125	1136.873413085938	-18.40190315246582	-1328.248657226562	1131.226928710938	-106.3622970581055	-1158.947387695312	921.18994140625	-70.78870391845703	-1206.592529296875	907.1954345703125	-1.909498572349548	-1264.8525390625	1068.296997070312	-7.159492015838623	-1142.410766601562	725.088134765625	-73.34529113769531	-1118.66162109375	799.2513427734375	-58.95807266235352	-1165.88525390625	799.7903442382812	-3.529114723205566	-1285.271118164062	1675.973876953125	-265.1119689941406	-1069.932006835938	1727.527221679688	-319.1326599121094	-1091.095703125	1729.338989257812	-221.3532409667969	-1214.31787109375	1681.361083984375	-385.7737731933594	-1251.564819335938	995.063232421875	-478.6887817382812	-1277.480590820312	1013.371765136719	-113.0563430786133	-1177.658813476562	1054.574829101562	-144.794921875	-1151.59326171875	1036.306762695312	-427.2330932617188	-1222.747924804688	508.4751586914062	-427.2799682617188	-1220.41259765625	652.4912109375	-462.0647888183594	-1303.336059570312	39.57877349853516	-413.477783203125	-1272.205078125	286.5133056640625	-433.5450134277344	-1092.54345703125	45.12746810913086	-346.6383361816406	-1174.682373046875	39.10742950439453	-424.19580078125	-1368.115234375	49.24749755859375	-364.0556335449219	-1235.435791015625	520.331298828125	-152.4222869873047	-1220.262084960938	787.9937133789062	-103.2069091796875	-1326.300048828125	41.75659942626953	-189.5944213867188	-1231.636962890625	401.5715026855469	-172.1305541992188	-1110.1201171875	47.53518676757812	-200.0466156005859	-1161.10791015625	43.33074569702148	-249.9995727539062	-1221.513549804688	42.20145034790039	-147.3930053710938	-1379.176391601562	39.15935134887695	-257.9920043945312	-1162.52685546875	40.53366470336914	-307.3904724121094	
